<svg xmlns="http://www.w3.org/2000/svg" viewBox="0 0 173.18 58.92">
  <defs>
    <style>
      .cls-1 {
        fill: #23255a;
      }
    </style>
  </defs>
  <title>150</title>
  <g id="Layer_2" data-name="Layer 2">
    <g id="Layer_2-2" data-name="Layer 2">
      <g>
        <path class="cls-1" d="M19.61.5V58.42h-6V5.79H0V.5Z"/>
        <path class="cls-1" d="M67,28.75q5.76,4.52,5.75,12.62a17.25,17.25,0,0,1-2.36,9,16.07,16.07,0,0,1-7.07,6.25,26.47,26.47,0,0,1-11.58,2.28,34.39,34.39,0,0,1-11.8-2,24.08,24.08,0,0,1-9-5.42l2.89-4.72a21.29,21.29,0,0,0,7.62,4.84,27.44,27.44,0,0,0,10.17,1.86q7.2,0,11.13-3.22a10.57,10.57,0,0,0,3.93-8.61q0-6-4.42-9T47.33,29.54H35l3-29H69.67V5.79H43.19l-2,18.45h7.44Q61.24,24.24,67,28.75Z"/>
        <path class="cls-1" d="M91.39,55.36A23.34,23.34,0,0,1,83.2,45.14a38.59,38.59,0,0,1-2.94-15.68A38.59,38.59,0,0,1,83.2,13.78,23.34,23.34,0,0,1,91.39,3.56a21.87,21.87,0,0,1,23.92,0,23.63,23.63,0,0,1,8.23,10.22,38.24,38.24,0,0,1,3,15.68,38.24,38.24,0,0,1-3,15.68,23.63,23.63,0,0,1-8.23,10.22,21.87,21.87,0,0,1-23.92,0Zm20.85-4.72a18.06,18.06,0,0,0,6-8.19,34.91,34.91,0,0,0,2.15-13,34.84,34.84,0,0,0-2.15-13,18.15,18.15,0,0,0-6-8.2,15.48,15.48,0,0,0-17.79,0,18.29,18.29,0,0,0-6,8.2,35,35,0,0,0-2.15,13,35.11,35.11,0,0,0,2.15,13,18.21,18.21,0,0,0,6,8.19,15.48,15.48,0,0,0,17.79,0Z"/>
        <path class="cls-1" d="M173.18,31.94H157.79V47h-5.21V31.94H137.19V27.06h15.39V11.92h5.21V27.06h15.39Z"/>
      </g>
    </g>
  </g>
</svg>
