<svg xmlns="http://www.w3.org/2000/svg" viewBox="0 0 142.4 58.92">
  <defs>
    <style>
      .cls-1 {
        fill: #23255a;
      }
    </style>
  </defs>
  <title>20</title>
  <g id="Layer_2" data-name="Layer 2">
    <g id="Layer_2-2" data-name="Layer 2">
      <g>
        <path class="cls-1" d="M42.37,53.12v5.3H1.74V54.2L25.82,30.62A31.09,31.09,0,0,0,32,22.88a14.67,14.67,0,0,0,1.61-6.58,9.7,9.7,0,0,0-3.51-8Q26.56,5.46,20,5.46q-10.17,0-15.8,6.46L0,8.27A22.3,22.3,0,0,1,8.65,2.15,31.16,31.16,0,0,1,20.52,0q8.85,0,14,4.18a14,14,0,0,1,5.17,11.46,19.53,19.53,0,0,1-2,8.6q-2,4.14-7.53,9.52L10.51,53.12Z"/>
        <path class="cls-1" d="M60.61,55.36a23.34,23.34,0,0,1-8.19-10.22,38.59,38.59,0,0,1-2.94-15.68,38.59,38.59,0,0,1,2.94-15.68A23.34,23.34,0,0,1,60.61,3.56a21.85,21.85,0,0,1,23.91,0,23.58,23.58,0,0,1,8.24,10.22,38.24,38.24,0,0,1,3,15.68,38.24,38.24,0,0,1-3,15.68,23.58,23.58,0,0,1-8.24,10.22,21.85,21.85,0,0,1-23.91,0Zm20.85-4.72a18.06,18.06,0,0,0,6-8.19,34.91,34.91,0,0,0,2.15-13,34.84,34.84,0,0,0-2.15-13,18.15,18.15,0,0,0-6-8.2,15.48,15.48,0,0,0-17.79,0,18.29,18.29,0,0,0-6,8.2,35,35,0,0,0-2.15,13,35.11,35.11,0,0,0,2.15,13,18.21,18.21,0,0,0,6,8.19,15.48,15.48,0,0,0,17.79,0Z"/>
        <path class="cls-1" d="M142.4,31.94H127V47H121.8V31.94H106.41V27.06H121.8V11.92H127V27.06H142.4Z"/>
      </g>
    </g>
  </g>
</svg>
