<svg xmlns="http://www.w3.org/2000/svg" viewBox="0 0 103.43 103.5">
  <defs>
    <style>
      .cls-1 {
        fill: #23255a;
      }
    </style>
  </defs>
  <title>Commisioning</title>
  <g id="Layer_2" data-name="Layer 2">
    <g id="Layer_2-2" data-name="Layer 2">
      <g>
        <path class="cls-1" d="M0,103.5V.05C.38,0,.71,0,1.05,0Q31.28,0,61.51,0A2.37,2.37,0,0,1,63,.64C70.7,8.24,78.31,15.89,86,23.49a2.68,2.68,0,0,1,.85,2.1c0,8.25,0,16.5,0,24.75v1.42h16.63v31.7H86.82v20ZM83.44,51.82V26.64H60.06V3.36H3.31v96.85H83.46V83.49H80.11V80.21c-1.46-.09-2.81-.32-3.79,1.05a2,2,0,0,1-1.43.55c-10,0-20,0-30,0a1.2,1.2,0,0,1-1.27-.77C42.33,78.3,41,75.54,39.58,72.7c-1.81,1.53-3.68,3.14-5.59,4.7a1.71,1.71,0,0,0-.68,1.51c0,5.6,0,11.21,0,16.81V96.8H6.71V70.25H33.38v3.39c1.82-1.54,3.48-2.9,5.09-4.34a1.34,1.34,0,0,0,.21-1.09c-.58-2.47-1.21-4.93-1.82-7.39a2.26,2.26,0,0,1-.11-.92c.63-3.23,1.29-6.46,2-9.8H56.27c-.09-.44-.12-.76-.21-1.05a23.54,23.54,0,0,1-1-8.55,3.73,3.73,0,0,1,.17-1.11Q57,35,58.76,30.67c.1-.24.4-.56.6-.56,3,0,6,0,9.06,0V31.2c0,3.13,0,6.27,0,9.4a3.65,3.65,0,0,0,.35,1.48q2,4,4,8a2.92,2.92,0,0,0,.77.94c1.6,1.24,3.2,2.47,4.85,3.63a7.51,7.51,0,0,0,1.77.62V51.82Zm-22.93,1.6H44.38c-1,0-2.23-.3-2.83.18s-.51,1.78-.74,2.72a11.49,11.49,0,0,0-.18,6.32c1.53,5,2.12,10.36,4.94,15a1.54,1.54,0,0,0,1.51.93q13,0,26,0a2.56,2.56,0,0,0,2.35-1,1.74,1.74,0,0,1,1.71-.72c1,0,2,0,3,0V58.3c-1.88.69-3-.5-4.26-1.44-1.55-1.18-3.13-2.32-4.67-3.52a4.05,4.05,0,0,1-1-1.26c-1.35-2.63-2.6-5.31-4-7.91a8.14,8.14,0,0,1-1-4.37c.09-2.11,0-4.22,0-6.43-1.16,0-2.2,0-3.22,0a1.36,1.36,0,0,0-1,.66c-.7,1.58-1.27,3.23-2,4.82a11.38,11.38,0,0,0-.38,6.65C59.05,48.15,59.84,50.72,60.51,53.42Zm39.62,26.73v-25H83.52v25ZM10,73.52v20H30V80.84c-3.5,3-6.9,5.78-10.22,8.69-1.22,1.07-2.57.51-3.86.61-.1,0-.23-.16-.3-.27L12,84.46l2.71-1.8c1,1.47,1.94,2.87,2.88,4.27a3.3,3.3,0,0,0,.38-.22q5.84-4.92,11.64-9.85a1.14,1.14,0,0,0,.44-.65c0-.89,0-1.78,0-2.69ZM80.58,23.36,63.48,6.22V23.36Z"/>
        <path class="cls-1" d="M6.72,6.73H33.29V10.2L39,5.44l2.12,2.49c-2.3,1.94-4.49,3.87-6.77,5.69a2.48,2.48,0,0,0-1,2.21c0,5.42,0,10.85,0,16.28v1.2H6.72ZM12,21l2.72-1.8,2.9,4.31c.37-.29.62-.48.85-.68,3.43-2.9,6.78-5.9,10.32-8.65,1.58-1.23,1.28-2.6,1.23-4.08H10V30H29.94V17.36c-3.53,3-7,5.83-10.32,8.74-1.18,1-2.5.44-3.77.53-.11,0-.26-.22-.35-.36Z"/>
        <path class="cls-1" d="M6.68,65V38.5H33.3v3.44L39,37.19c.69.82,1.37,1.6,2.12,2.48l-3.75,3.19c-1.09.93-2.15,1.88-3.28,2.75a1.76,1.76,0,0,0-.72,1.6c0,5.91,0,11.82,0,17.83ZM30,41.79H10v20H30V49.13c-.3.23-.49.37-.67.52C26.18,52.28,23,54.84,20,57.57c-1.27,1.15-2.63.78-4,.84-.13,0-.31-.15-.4-.27-1.2-1.78-2.39-3.57-3.63-5.43l2.72-1.8c1,1.46,1.92,2.86,2.85,4.23a1.34,1.34,0,0,0,.31-.11q5.9-5,11.79-10a1.3,1.3,0,0,0,.39-.78C30.07,43.48,30,42.68,30,41.79Z"/>
      </g>
    </g>
  </g>
</svg>
