<svg xmlns="http://www.w3.org/2000/svg" viewBox="0 0 103.43 103.33">
  <defs>
    <style>
      .cls-1 {
        fill: #23255a;
      }
    </style>
  </defs>
  <title>Construction</title>
  <g id="Layer_2" data-name="Layer 2">
    <g id="Layer_2-2" data-name="Layer 2">
      <g>
        <path class="cls-1" d="M76.73,40.07H50.05v1.24q0,24,0,47.94a1.49,1.49,0,0,0,.87,1.53,4.68,4.68,0,0,1,2.49,4.27c0,2.74,0,5.48,0,8.28H6.72c0-3.06-.12-6.11,0-9.15a4.62,4.62,0,0,1,2.59-3.57,1.38,1.38,0,0,0,.64-1q0-24.54,0-49.09c0-.13,0-.26,0-.47H0V39C0,33.8,0,28.59,0,23.38A1.51,1.51,0,0,1,.82,21.9q10.07-6.09,20.1-12.22c.45-.27.81-.48.81-1.16a8.31,8.31,0,0,1,16.6-.83c.07.7.38.84.92,1q26.94,7.26,53.88,14.5a3.69,3.69,0,0,1,2.05,1.37c2.54,3.08,5.13,6.13,7.65,9.22a2.64,2.64,0,0,1,.56,1.47c.07,1.55,0,3.11,0,4.78H86.74c0,3,0,5.86,0,8.73,0,.28.25.56.41.81a6.25,6.25,0,0,1,.73,6.22,1.08,1.08,0,0,0,.3,1.42q5.65,5.75,11.28,11.56a2.34,2.34,0,0,1,.58,1.43q0,11.25,0,22.51a1.33,1.33,0,0,0,.77,1.37,4.73,4.73,0,0,1,2.58,4.42c0,1.59,0,3.19,0,4.85H60.08c0-1.91-.13-3.82,0-5.7a4.31,4.31,0,0,1,2.45-3.53,1.4,1.4,0,0,0,.84-1.54c0-7.43,0-14.87,0-22.3a2.06,2.06,0,0,1,.68-1.63c3.71-3.76,7.38-7.55,11.09-11.31a1.29,1.29,0,0,0,.38-1.67,6.27,6.27,0,0,1,.71-6,3.15,3.15,0,0,0,.47-1.52C76.76,45.46,76.73,42.82,76.73,40.07ZM80.12,23.3l.06-.13L37.91,11.74c-.93,1.08-1.76,2-2.58,3a.91.91,0,0,0-.27.52c0,2.66,0,5.32,0,8ZM73.37,80.08V90H70V80.13H66.78v13.2h10V83.44h3.31v9.88h10V83.45h3.35v9.89h3.23V80.14h-10V90H83.35V80.08Zm-23.32,20V95.7c0-1.73-.57-2.3-2.3-2.3H31.29q-9.6,0-19.18,0c-1.18,0-2,.44-2,1.37-.1,1.75,0,3.51,0,5.28ZM30,55.56c-3.28,2.81-6.47,5.53-9.65,8.27a2,2,0,0,0,.07,2.49c1.26,1.09,2.54,2.16,3.81,3.24L30,74.47c3.24-2.75,6.42-5.45,9.58-8.15a2,2,0,0,0,.07-2.49C36.5,61.09,33.31,58.37,30,55.56ZM67.5,70H96L85.34,59a6.69,6.69,0,0,1-7.23,0ZM16.62,90V40.11H13.41V90Zm26.85-50V90h3.17V40.05Zm-23.31,0a3.18,3.18,0,0,0,1.53,4,9.49,9.49,0,0,1,1.19,1L30,51.17c2.93-2.51,5.73-5.05,8.7-7.39A3.41,3.41,0,0,0,40,40.07ZM20,90H40c.2-2.42.2-2.42-1.53-3.85l-1-.8C35,83.22,32.55,81.11,30,79c-2.95,2.52-5.81,5-8.76,7.45A2.83,2.83,0,0,0,20,89.31,5.09,5.09,0,0,1,20,90Zm80,10c.27-2.3,0-3.37-2.87-3.33-6.14.1-12.28,0-18.43,0H65.38c-1.17,0-1.87.55-2,1.55a17,17,0,0,0,0,1.75ZM25,23.3c0-2.7,0-5.3,0-7.9a1.06,1.06,0,0,0-.25-.63c-.66-.75-1.35-1.47-2.09-2.27L5,23.3ZM6.49,26.72c3.94,3.16,7.68,6.14,11.4,9.14.51.42.8.11,1.15-.18l10.4-8.31c.21-.17.39-.38.68-.65Zm57,.05H39.9c3.88,3.11,7.62,6.09,11.34,9.09.52.42.8.11,1.16-.18,1.75-1.41,3.52-2.81,5.28-4.22ZM46.91,36.66c-3.92-3.14-7.64-6.11-11.34-9.1-.54-.44-.84-.16-1.24.15L24,36c-.22.18-.42.4-.71.68Zm9.68,0H80.21c-3.88-3.11-7.61-6.1-11.37-9.06a1,1,0,0,0-1,0C64.15,30.53,60.45,33.51,56.59,36.61ZM85,36.18l8.82-7.85A2.63,2.63,0,0,0,91,26.65c-5.51.09-11,0-16.55,0H73.15ZM96.7,73.46H66.78v3.2H96.7ZM25,8.3a5,5,0,1,0,5-5A5,5,0,0,0,25,8.3ZM40,47l-7.4,6.34L40,59.7ZM20.09,59.7c2.53-2.16,4.92-4.22,7.39-6.34l-7.39-6.3Zm0,23.33,7.36-6.32-7.36-6.29Zm12.55-6.31L40,83V70.44Zm-19.06-40L3.43,28.55v8.12Zm71.5,16.66a3.34,3.34,0,1,0-3.34,3.37A3.34,3.34,0,0,0,85.07,53.33Zm15-16.67c0-1.11-2.23-4.27-4.07-5.76l-6.46,5.76Zm-19.9,3.41v6.71h3.19V40.07ZM28.45,16.62v6.67h3.21V16.62Z"/>
        <path class="cls-1" d="M31.7,8.35a1.67,1.67,0,1,1-1.63-1.67A1.69,1.69,0,0,1,31.7,8.35Z"/>
      </g>
    </g>
  </g>
</svg>
