<?xml version="1.0" encoding="utf-8"?>
<!-- Generator: Adobe Illustrator 15.1.0, SVG Export Plug-In . SVG Version: 6.00 Build 0)  -->
<!DOCTYPE svg PUBLIC "-//W3C//DTD SVG 1.1//EN" "http://www.w3.org/Graphics/SVG/1.1/DTD/svg11.dtd">
<svg version="1.1" id="Layer_1" xmlns="http://www.w3.org/2000/svg" xmlns:xlink="http://www.w3.org/1999/xlink" x="0px" y="0px"
	 width="512px" height="512px" viewBox="0 0 512 512" enable-background="new 0 0 512 512" xml:space="preserve">
<g>
	<path fill-rule="evenodd" clip-rule="evenodd" fill="#23255A" d="M59.993,7.999c27.021,0.642,56.625-1.299,81.989,1
		c3.322,159.549,3.329,333.361,0,493.938c-25.745,1.021-60.9,2.953-84.989-1c-1.666-161.314-1.667-329.623,0-490.938
		C57.553,9.559,58.552,8.559,59.993,7.999z M70.991,25.997c0,154.316,0,308.627,0,462.942c19.331,0,38.662,0,57.993,0
		c0-155.316,0-310.625,0-465.941c-18.998,0-37.995,0-56.993,0C70.826,23.165,70.905,24.578,70.991,25.997z"/>
	<path fill-rule="evenodd" clip-rule="evenodd" fill="#23255A" d="M117.985,54.993c2.207,4.115,2.207,7.883,0,11.999
		c-9.297,2.701-30.547,4.339-36.996-2C77.245,46.072,107.714,53.575,117.985,54.993z"/>
	<path fill-rule="evenodd" clip-rule="evenodd" fill="#23255A" d="M374.953,70.991c23.107,1.223,51.176-2.516,70.99,2
		c1.664,43.35,1.664,93.634,0,136.983c-14.896,4.434-37.826,0.835-55.992,2c2.394,13.474-3.332,23.004,0,33.996
		c1.385,4.567,8.84,8.256,12.998,12.999c11.783,13.436,20.342,31.136,16.998,54.993c-7.082,4.25-21.698,0.966-31.996,1.999
		c18.169,52.218,41.514,110.496,62.992,165.979c1.554,4.015,9.138,18.564,0,21.997c-10.475,3.935-20.009-31.742-23.997-41.995
		c-18.911-48.609-37.828-98.982-56.993-145.981c-5.332,0-10.665,0-15.998,0c0,41.788,0,95.646,0,143.982
		c0,14.371,5.379,48.358-9.998,43.994c-8.035-2.28-5-29.689-5-42.994c0-47.776,0-97.541,0-143.982
		c-3.355-2.311-10.981-0.351-15.998-1c-20.693,44.963-37.539,95.308-56.992,144.982c-3.787,9.67-13.141,44.901-23.997,42.994
		c-10.767-1.892-2.072-19.229-1-21.997c20.953-54.127,43.734-110.78,63.992-164.979c-8.289-3.376-25.266,1.935-31.996-2.999
		c-5.989-30.151,12.394-52.81,28.996-66.992c0-11.665,0-23.33,0-34.996c-18.166-1.165-41.097,2.435-55.993-2
		c-1.953-5.713-0.605-14.726-1-21.997c-11.373-0.959-26.805,2.141-34.996-2c-1.691-16.737-1.619-40.245,0-56.993
		c8.19-3.809,22.727-1.27,33.996-2c2.88-4.785-0.844-16.176,2-20.997c17.293-5.379,39.392-3,60.992-3c21.007,0,43.16,0,62.992,0
		C371.118,91.82,366.56,74.93,374.953,70.991z M385.951,85.989c0,5.666,0,11.332,0,16.998c15.332,0,30.663,0,45.994,0
		c0-5.666,0-11.332,0-16.998C416.614,85.989,401.283,85.989,385.951,85.989z M259.967,120.985c0,25.33,0,50.66,0,75.99
		c57.327,0,114.652,0,171.979,0c0-26.33,0-52.66,0-78.99c-56.992,0-113.985,0-170.979,0
		C259.802,118.153,259.881,119.566,259.967,120.985z M223.972,172.978c6.999,0,13.999,0,20.998,0c0-9.999,0-19.997,0-29.996
		c-5.158-2.174-14.216-0.449-20.998-1C223.972,152.314,223.972,162.646,223.972,172.978z M316.96,238.97
		c15.77-6.466,42.251-6.617,57.993,0c0-8.999,0-17.998,0-26.997c-19.331,0-38.662,0-57.993,0
		C316.96,220.972,316.96,229.971,316.96,238.97z M285.964,300.962c39.995,0,79.99,0,119.985,0
		C401.75,233.293,288.104,233.792,285.964,300.962z"/>
	<path fill-rule="evenodd" clip-rule="evenodd" fill="#23255A" d="M118.985,120.985c7.098,18.003-27.117,12.29-36.995,9.999
		C73.63,111.853,110.473,116.993,118.985,120.985z"/>
	<path fill-rule="evenodd" clip-rule="evenodd" fill="#23255A" d="M340.957,128.984c15.245-2.6,30.416,7.065,33.996,17.998
		c15.075,46.044-59.437,57.014-58.993,10.999C316.125,140.865,325.79,131.57,340.957,128.984z M360.954,162.979
		c6.713-23.688-30.713-28.572-29.996-5c0.293,9.612,7.352,15.549,20.998,13.999C355.84,167.471,359.864,166.826,360.954,162.979z"/>
	<path fill-rule="evenodd" clip-rule="evenodd" fill="#23255A" d="M118.985,195.975c-7.307,4.958-28.189,3.828-36.995,1
		c-1.852-4.354-1.621-12.129,3-12.998C98.494,185.405,125.139,178.121,118.985,195.975z"/>
	<path fill-rule="evenodd" clip-rule="evenodd" fill="#23255A" d="M117.985,249.969c2.207,4.115,2.207,7.884,0,11.998
		c-9.183,2.587-30.744,4.536-36.996-2C77.245,241.047,107.714,248.55,117.985,249.969z"/>
	<path fill-rule="evenodd" clip-rule="evenodd" fill="#23255A" d="M118.985,315.96c7.098,18.003-27.117,12.29-36.995,9.999
		C73.63,306.828,110.473,311.968,118.985,315.96z"/>
	<path fill-rule="evenodd" clip-rule="evenodd" fill="#23255A" d="M118.985,390.951c-7.307,4.957-28.189,3.827-36.995,0.999
		c-1.852-4.354-1.621-12.129,3-12.998C98.494,380.381,125.139,373.097,118.985,390.951z"/>
	<path fill-rule="evenodd" clip-rule="evenodd" fill="#23255A" d="M117.985,444.944c2.207,4.114,2.207,7.883,0,11.998
		c-9.183,2.587-30.744,4.536-36.996-2C77.382,436.16,107.667,443.478,117.985,444.944z"/>
</g>
</svg>
