<svg xmlns="http://www.w3.org/2000/svg" viewBox="0 0 103.43 103.37">
  <defs>
    <style>
      .cls-1 {
        fill: #23255a;
      }
    </style>
  </defs>
  <title>mainfunction</title>
  <g id="Layer_2" data-name="Layer 2">
    <g id="Layer_2-2" data-name="Layer 2">
      <g>
        <path class="cls-1" d="M33.36,61.1c0-1.42,0-2.73,0-4s.59-2,2-2c2,0,4,0,5.94,0,1.47,0,2,.6,2,2.1,0,2.61,0,5.21,0,7.82,0,.6.14,1,.75,1.15,2.14.55,2.68,1.93,2.65,4.09-.12,10.35,0,20.7,0,31,0,1.57-.57,2.15-2.12,2.15H2.09c-1.48,0-2.07-.59-2.07-2.09Q0,85,0,68.78a2,2,0,0,1,1.32-2.11q10.5-4.81,21-9.67a2.36,2.36,0,0,1,2.18,0c2.6,1.23,5.22,2.42,7.84,3.62C32.61,60.79,32.93,60.91,33.36,61.1Zm-20,32.21V75.55c0-1.62.57-2.19,2.18-2.19H31.05c1.82,0,2.31.51,2.31,2.37q0,8.33,0,16.66c0,.3,0,.6,0,.9h9.9c0-.17,0-.27,0-.37,0-7.61,0-15.21,0-22.81,0-.72-.4-.87-.87-1.08q-9.1-4.2-18.22-8.42a1.92,1.92,0,0,0-1.83,0Q13.37,64.84,4.24,69a1.29,1.29,0,0,0-.91,1.38c0,7.29,0,14.58,0,21.87v1.06ZM30,100V83.45H16.74V100ZM16.74,80h13.2V76.75H16.74ZM13.29,100V96.77H3.44V100Zm20.12,0H43.3V96.77H33.41Zm3.3-41.6c0,1.37,0,2.73,0,4.1,0,.12.19.28.32.35,1,.45,1.92.88,2.91,1.32V58.38Z"/>
        <path class="cls-1" d="M90,61.08c0-1.41,0-2.72,0-4s.61-2,2-2C94,55,96,55,97.9,55c1.57,0,2.14.57,2.14,2.12,0,2.6,0,5.2,0,7.81,0,.61.16,1,.75,1.14,2.16.55,2.68,1.94,2.65,4.1-.11,10.31-.05,20.62-.05,30.93,0,1.7-.54,2.25-2.22,2.25H59.08c-1.91,0-2.38-.48-2.38-2.41,0-10.58,0-21.17,0-31.76a2.57,2.57,0,0,1,1.72-2.72q10.14-4.59,20.2-9.32a3.12,3.12,0,0,1,3,0c2.43,1.2,4.9,2.3,7.35,3.43C89.23,60.76,89.58,60.89,90,61.08ZM70,93.31V75.55c0-1.64.54-2.19,2.17-2.19H87.83c1.69,0,2.21.54,2.21,2.26V93.29H100c0-.17.05-.27.05-.37,0-7.61,0-15.21,0-22.81,0-.72-.41-.87-.88-1.08-6.1-2.82-12.21-5.62-18.31-8.47a1.83,1.83,0,0,0-1.73,0Q70.09,64.8,61,69a1.43,1.43,0,0,0-1,1.53c0,7.29,0,14.58,0,21.87v1Zm3.41-9.9V100h13.2V83.41ZM86.66,80V76.75H73.44V80ZM70,96.77H60.12V100H70ZM100,100V96.75H90.1V100ZM96.69,58.42H93.38c0,1.3,0,2.54,0,3.78a.74.74,0,0,0,.28.58c1,.48,2,.92,3,1.4Z"/>
        <path class="cls-1" d="M100.05,36.68c0,1.62,0,3.14,0,4.66s-.59,2-2,2H55.39c-1.43,0-2-.6-2-2s0-3,0-4.64h-1c-1.79,0-2.31-.51-2.31-2.26V2.23C50,.53,50.56,0,52.28,0h48.87c1.7,0,2.23.53,2.23,2.23V34.13c0,2.13-.4,2.53-2.54,2.55ZM100,33.3V3.42H53.42V33.28H66.74V26.73h3.32v6.54H73.4V26.75h3.35v6.54h3.32V21.76h3.35V33.28h3.34V21.74h3.31V33.26h3.35V18.42h3.32V33.3ZM56.75,39.94H96.66v-3.2H56.75Z"/>
        <path class="cls-1" d="M33.36,6.11c0-1.47,0-2.78,0-4.1S34,0,35.3,0h6.15a1.69,1.69,0,0,1,1.91,1.93c0,2.63,0,5.27,0,7.91,0,.64.11,1.06.78,1.24,2.15.55,2.64,2,2.62,4.11-.12,10.2,0,20.41,0,30.62,0,2.12-.43,2.54-2.57,2.54H2.37C.52,48.36,0,47.86,0,46Q0,30,0,13.94a2.27,2.27,0,0,1,1.46-2.35Q11.87,6.85,22.23,2A2.46,2.46,0,0,1,24.5,2C27.38,3.39,30.28,4.7,33.36,6.11Zm10,32.19c0-.21,0-.34,0-.47,0-7.58,0-15.15,0-22.72,0-.7-.38-.87-.86-1.09C36.39,11.19,30.25,8.35,24.1,5.55a2.1,2.1,0,0,0-1.52,0C16.46,8.35,10.36,11.19,4.24,14a1.3,1.3,0,0,0-.91,1.38c0,7.33,0,14.66,0,22v1Zm0,3.46H3.44V45H43.31ZM36.72,7.67,40,9.15V3.42H36.72Z"/>
        <path class="cls-1" d="M96.71,15h-3.3V12.49c-.33.26-.54.4-.72.57-1.5,1.5-3,3-4.52,4.46a3.26,3.26,0,0,1-1.91.79c-2.14.1-4.3,0-6.45.06a2.08,2.08,0,0,0-1.25.51c-1.75,1.69-3.47,3.4-5.16,5.15A2.91,2.91,0,0,1,71,25c-1.73-.06-3.47.08-5.2-.05a3.37,3.37,0,0,0-3,1.3c-1,1.12-2.07,2.14-3.16,3.25l-2.23-2.46c1.59-1.61,3.24-3.34,5-5a2.09,2.09,0,0,1,1.35-.38c2.15,0,4.3,0,6.45-.05a2.34,2.34,0,0,0,1.43-.58c1.71-1.62,3.39-3.28,5-5A3.21,3.21,0,0,1,79.24,15c2,.07,4,0,6,0a1.65,1.65,0,0,0,1-.32c1.53-1.46,3-3,4.68-4.64H88.42V6.7c2.32,0,4.63-.06,6.93,0A1.45,1.45,0,0,1,96.7,8.33C96.73,10.51,96.71,12.69,96.71,15Z"/>
        <path class="cls-1" d="M25,31.68V35H21.73V31.7H15.07V28.35h11.2c1.33,0,2.08-.61,2.08-1.66S27.6,25,26.29,25c-2.05,0-4.1,0-6.15,0a5,5,0,1,1,0-10h1.55V11.73H25V15h6.65v3.34H20.44c-1.32,0-2.07.61-2.08,1.66s.76,1.67,2.07,1.67h6.14a5,5,0,1,1,0,10C26.12,31.69,25.64,31.68,25,31.68Z"/>
      </g>
    </g>
  </g>
</svg>
