<svg xmlns="http://www.w3.org/2000/svg" viewBox="0 0 103.43 96.9">
  <defs>
    <style>
      .cls-1 {
        fill: #23255a;
      }
    </style>
  </defs>
  <title>mission</title>
  <g id="Layer_2" data-name="Layer 2">
    <g id="Layer_2-2" data-name="Layer 2">
      <g>
        <path class="cls-1" d="M69.42,63.39v-10H66.25v6.41H32.4V63H66.28c0,1,0,1.8,0,2.63a1.89,1.89,0,0,0,.88,2c.79.43,1.41,0,2-.36L85.89,56.69c1.85-1.18,1.85-2.3,0-3.47C80.26,49.62,74.63,46,69,42.45a2.06,2.06,0,0,0-1.75-.17,2.44,2.44,0,0,0-.89,1.61,19.9,19.9,0,0,0,0,3H32.4v3.18H50.51c5.62,0,11.24,0,16.86,0,1.57,0,2.09-.54,2.11-2.13V46.54L82.68,55Zm9.72-37.51H34.76a11,11,0,0,0-1.82.08,8.31,8.31,0,0,0-7.06,8.32q0,30.9,0,61.79v.8h3.19V53.07c0-6.36,0-12.72,0-19.08A4.55,4.55,0,0,1,33,29.14a10.88,10.88,0,0,1,1.81-.07H78.13c.33,0,.65,0,1-.05ZM32.38,77.41c.1.07.12.11.15.11,6.39,0,12.79,0,19.18,0a1.56,1.56,0,0,0,1.6-1.61c0-.58,0-1.16,0-1.92l13.2,8.41L53.27,90.85v-10h-3.2v6.44H32.39v3.18H50.12c0,1,0,1.86,0,2.73A1.82,1.82,0,0,0,51,95.13a1.79,1.79,0,0,0,2-.29L69.8,84.11c1.75-1.12,1.75-2.26,0-3.35-5.67-3.63-11.33-7.26-17-10.83a2,2,0,0,0-1.74-.17,2.38,2.38,0,0,0-.91,1.6,21.84,21.84,0,0,0,0,3H32.38ZM19.33,61.5H16.24V96.9h3.09ZM16.21,29H19.3V25.94H16.21Zm19.27,6.49V32.42H32.41v3.09Zm6.46,0V32.4H38.85v3.09Zm6.47,0V32.42H45.34v3.09Z"/>
        <path class="cls-1" d="M0,26.46c.13-.41.26-.82.4-1.23a8.3,8.3,0,0,1,7.8-5.81q26.21,0,52.41,0h.73v3.2H8.63C5,22.61,3.21,24.34,3.21,28q0,14.55,0,29.09v1.07H6.46V32.39H9.64V54.92H22.55v3.22H9.71V96.87H6.53V61.41H0Z"/>
        <path class="cls-1" d="M103.43,27.88a8.74,8.74,0,0,1-1.27,1.24C96.58,32.7,91,36.24,85.4,39.81c-.68.43-1.33.83-2.14.35a2,2,0,0,1-.82-2c0-.83,0-1.67,0-2.58H51.81V32.39H82.42V25.93h3.21v10l13.21-8.41-13.21-8.4c0,.76,0,1.32,0,1.88a1.55,1.55,0,0,1-1.57,1.64c-6.42,0-12.84,0-19.33,0V19.44H82.44a21.27,21.27,0,0,1,0-3,2.49,2.49,0,0,1,.89-1.62,2,2,0,0,1,1.74.16c5.73,3.59,11.42,7.24,17.11,10.89a11.56,11.56,0,0,1,1.21,1Z"/>
        <path class="cls-1" d="M18.79,0a9.66,9.66,0,0,1,4.77,2.64A7.6,7.6,0,0,1,24.7,12a8,8,0,0,1-9,3.83,8.4,8.4,0,0,1-6-7.95A8.48,8.48,0,0,1,16,.24L16.77,0Zm-1,13a4.62,4.62,0,0,0,4.87-4.89,4.61,4.61,0,0,0-4.81-4.84,4.61,4.61,0,0,0-4.92,4.83A4.62,4.62,0,0,0,17.77,13Z"/>
        <path class="cls-1" d="M69.42,63.39,82.68,55l-13.2-8.41V48c0,1.59-.54,2.13-2.11,2.13-5.62,0-11.24,0-16.86,0H32.4V46.9H66.28a19.9,19.9,0,0,1,0-3,2.44,2.44,0,0,1,.89-1.61,2.06,2.06,0,0,1,1.75.17C74.63,46,80.26,49.62,85.9,53.22c1.84,1.17,1.84,2.29,0,3.47L69.2,67.3c-.64.41-1.26.79-2,.36a1.89,1.89,0,0,1-.88-2c0-.83,0-1.67,0-2.63H32.4V59.83H66.25V53.42h3.17Z"/>
        <path class="cls-1" d="M79.14,25.88V29c-.36,0-.68.05-1,.05H34.82a10.88,10.88,0,0,0-1.81.07A4.55,4.55,0,0,0,29.08,34c0,6.36,0,12.72,0,19.08v43.8H25.88v-.8q0-30.88,0-61.79A8.31,8.31,0,0,1,32.94,26a11,11,0,0,1,1.82-.08H79.14Z"/>
        <path class="cls-1" d="M32.38,77.41v-3H50.11a21.84,21.84,0,0,1,0-3,2.38,2.38,0,0,1,.91-1.6,2,2,0,0,1,1.74.17c5.7,3.57,11.36,7.2,17,10.83,1.72,1.09,1.72,2.23,0,3.35L53,94.84a1.79,1.79,0,0,1-2,.29,1.82,1.82,0,0,1-.87-1.89c0-.87,0-1.74,0-2.73H32.39V87.33H50.07V80.89h3.2v10l13.25-8.43L53.32,74c0,.76,0,1.34,0,1.92a1.56,1.56,0,0,1-1.6,1.61c-6.39,0-12.79,0-19.18,0C32.5,77.52,32.48,77.48,32.38,77.41Z"/>
        <path class="cls-1" d="M19.33,61.5V96.9H16.24V61.5Z"/>
        <path class="cls-1" d="M16.21,29V25.94H19.3V29Z"/>
        <path class="cls-1" d="M35.48,35.51H32.41V32.42h3.07Z"/>
        <path class="cls-1" d="M41.94,35.49H38.85V32.4h3.09Z"/>
        <path class="cls-1" d="M48.41,35.51H45.34V32.42h3.07Z"/>
      </g>
    </g>
  </g>
</svg>
