<?xml version="1.0" encoding="utf-8"?>
<!-- Generator: Adobe Illustrator 15.1.0, SVG Export Plug-In . SVG Version: 6.00 Build 0)  -->
<!DOCTYPE svg PUBLIC "-//W3C//DTD SVG 1.1//EN" "http://www.w3.org/Graphics/SVG/1.1/DTD/svg11.dtd">
<svg version="1.1" id="Layer_1" xmlns="http://www.w3.org/2000/svg" xmlns:xlink="http://www.w3.org/1999/xlink" x="0px" y="0px"
	 width="512px" height="512px" viewBox="0 0 512 512" enable-background="new 0 0 512 512" xml:space="preserve">
<g>
	<path fill-rule="evenodd" clip-rule="evenodd" fill="#23255A" d="M316,89c56.031,24.302,98.11,62.557,109,132
		c44.087-4.908,45.779,82.646-2,75c-0.507,9.827,1.112,21.779-1,30c-13.914,6.419-39.249,1.418-58,3c-4.231,5.102-5.438,13.229-9,19
		c5.812,9.896,10.561,13.561,19,22c4.567,4.567,18.764,13.918,19,22c0.265,9.07-13.55,17.55-19,23c-5.432,5.432-12.711,18.729-22,19
		c-8.36,0.244-17.45-12.45-23-18c-7.692-7.692-12.771-14.255-20-20c-7.676,1.991-13.756,5.578-21,8c-1.084,18.916,2.321,42.321-2,58
		c-15.703,3.245-44.307,3.308-60,0c-4.442-15.225-0.83-38.503-2-57c-4.879-4.454-13.382-5.284-19-9
		c-9.895,5.812-13.561,10.561-22,19c-4.568,4.567-13.918,18.764-22,19c-9.075,0.265-17.544-13.544-23-19
		c-5.387-5.387-18.729-12.731-19-22c-0.245-8.38,12.448-17.447,18-23c7.882-7.882,14.973-12.668,20-21
		c-2.506-6.827-5.446-13.221-8-20c-19.144-1.522-44.666,3.333-59-3c-2.099-7.901-0.503-19.497-1-29c-45.707,6.17-48.217-79.529-2-75
		c10.733-69.6,51.579-109.087,109-132c-3.003-20.732,7.771-38.86,28-42c14.203-2.205,49.706-2.679,65,0
		C307.854,51.303,319.17,69.127,316,89z M221,105c3.032,7.871,6.108,15.59,9,23c4.78,12.246,8.41,38,26,38
		c15.767,0,21.208-23.234,27-38c3.251-8.287,6.472-16.48,9-23c2.901-7.482,8.079-19.76,7-26c-3.809-22.02-52.791-10.712-74-12
		C205.388,72.919,215.885,91.72,221,105z M105,222c16.117,0,21.604,0,37,0c16.023,0,28.937-1.558,27,11c-1.759,11.405-32.573,7-43,7
		c-17.188,0-41.568-3.032-49,2c-5.915,4.005-8.257,28.471,0,34c5.468,3.662,28.121,2,43,2c93.32,0,179.967,0,271,0
		c14.239,0,37.828,2.133,44-2c8.085-5.414,6.15-29.949,0-34c-7.024-4.626-35.509-2-49-2c-15.465,0-43.258,3.943-43-9
		c0.354-17.818,49.412-5.136,64-9c-10.872-59.795-46.628-94.706-97-115c-10.996,18.188-12.429,46.07-26,64
		c-13.192,17.429-42.754,17.208-56-1c-12.735-17.505-14.286-41.951-26-62C152.942,125.276,115.521,162.854,105,222z M107,296
		c0,5,0,10,0,15c17.441,0.559,37.186-1.186,53,1c3.08,10.757,18.461,29.166,17,41c-0.906,7.333-12.651,14.651-18,20
		c-7.297,7.297-13.375,13.2-18,20c6.41,6.591,11.925,14.075,20,19c11.508-6.247,24.509-34.667,39-36c6.651-0.612,14.09,5.181,21,8
		c7.52,3.068,15.935,3.907,20,10c2.253,15.414,0.393,34.94,1,52c9.333,0,18.667,0,28,0c0-17,0-34,0-51
		c3.553-6.297,12.509-7.909,20-11c7.624-3.146,15.696-9.109,23-8c6.412,0.975,15.091,12.091,20,17c6.942,6.942,12.685,13.361,18,19
		c7.915-5.418,14.582-12.085,20-20c-4.684-12.361-34.827-24.885-36-40c-0.461-5.937,5.395-15.847,8-22
		c2.838-6.701,4.744-16.705,12-19c15.008-4.747,32.546,3.553,50,0c0-5,0-10,0-15c-28,0-56,0-84,0c-1.532,36.52-22.938,62.438-56,66
		c-44.386,4.782-71.807-24.938-75-66C162.333,296,134.667,296,107,296z M210,296c-7.612,60.723,96.905,64.667,93,0
		C272,296,241,296,210,296z"/>
</g>
</svg>
