<svg xmlns="http://www.w3.org/2000/svg" viewBox="0 0 106.29 104.45">
  <defs>
    <style>
      .cls-1 {
        fill: #23255a;
      }
    </style>
  </defs>
  <title>strategicpartner</title>
  <g id="Layer_2" data-name="Layer 2">
    <g id="Layer_2-2" data-name="Layer 2">
      <g>
        <path class="cls-1" d="M78.43,69.11a8.42,8.42,0,0,1-5.28,13.34c-.06,0-.1.08-.17.13,1.1.39,2.15.81,3.24,1.1.25.07.68-.21.92-.45,3-3,6.06-6.07,9.11-9.07a5.23,5.23,0,1,1,7.38,7.4C90.24,85,86.88,88.43,83.4,91.75a4.7,4.7,0,0,0-1.64,4c.14,2.87,0,5.75,0,8.68H78.48V103.3c0-3.41,0-6.82,0-10.23a2.29,2.29,0,0,1,.79-1.82q5.83-5.79,11.63-11.62a4.8,4.8,0,0,0,.78-.85,1.8,1.8,0,0,0-.2-2.33,1.87,1.87,0,0,0-2.4-.33,6.24,6.24,0,0,0-.86.77Q83,82.11,77.76,87.33a8.87,8.87,0,0,0-.71,1c-3.61-3.07-7-3.13-10.5-.15-.29-.26-.55-.48-.79-.72Q60.42,82.12,55.1,76.78c-1.35-1.35-2.54-1.35-3.91,0Q45.93,82,40.69,87.3a8.47,8.47,0,0,0-.74,1c-3.61-3.11-7.08-3.12-10.58-.11L23.91,82.7c-2-2-4-4-6-6-1-1-2.12-1.11-3-.29s-.77,2,.28,3q6,6,11.93,11.92A2.07,2.07,0,0,1,27.83,93c0,3.79,0,7.58,0,11.46H24.49v-1c0-3,0-6,0-9a2.45,2.45,0,0,0-.82-1.92c-3.7-3.65-7.37-7.34-11-11a5.05,5.05,0,0,1-1.39-5.41,5,5,0,0,1,4.07-3.55,5.23,5.23,0,0,1,4.86,1.68c2.95,3,5.92,5.91,8.85,8.89a1.21,1.21,0,0,0,1.62.31,20.58,20.58,0,0,1,2.55-.86c-.1-.08-.18-.2-.28-.22a8.42,8.42,0,0,1-5.08-13.3l0,0a22.77,22.77,0,0,1,3.65-2.7c2.71-1.31,6.77-1,9.86,2.66a.77.77,0,0,0,.08.19c3.43,5.46,1,11.6-5.29,13.14-.1,0-.18.13-.29.21a21.27,21.27,0,0,1,2.66.86,1.21,1.21,0,0,0,1.62-.31c2.8-2.85,5.65-5.67,8.48-8.5s6.13-3,9.09,0,5.71,5.72,8.58,8.56c.22.22.61.52.83.46,1.08-.31,2.13-.73,3.41-1.19a8.7,8.7,0,0,1-5.33-3A8.41,8.41,0,1,1,78.46,69.13ZM39.68,74.18a5.09,5.09,0,1,0-5.1,5.08A5.09,5.09,0,0,0,39.68,74.18Zm26.94,0a5.09,5.09,0,1,0,5.08-5.09A5.08,5.08,0,0,0,66.62,74.18Z"/>
        <path class="cls-1" d="M27.86,69.11H24.55c0-.42-.05-.72-.05-1a46.43,46.43,0,0,1,0-5.9c.38-3.07-.7-5.24-3-7.27-3.16-2.77-6-5.89-9-8.9a5.12,5.12,0,0,1-1.07-5.83,5.23,5.23,0,0,1,5-3.08,5.48,5.48,0,0,1,3.72,1.74c2.85,2.87,5.71,5.72,8.56,8.58a10.24,10.24,0,0,1,.8,1l4-1.28a8.71,8.71,0,0,1-5.89-3.73,8.24,8.24,0,0,1-1.18-6.65,8.4,8.4,0,0,1,16.49.89c.69,4.2-1.73,7.48-7,9.53,1.08.38,2.13.8,3.22,1.09.25.07.68-.21.92-.45C43,44.92,45.85,42,48.76,39.1c2.75-2.74,6-2.74,8.79,0,2.91,2.91,5.82,5.81,8.71,8.73a1,1,0,0,0,1.35.27c.88-.39,1.84-.61,3-1a8.68,8.68,0,0,1-6-3.88,8.14,8.14,0,0,1-.94-7,8.4,8.4,0,0,1,16.39,1.64c.49,4.19-2.06,7.57-7.11,9.24l3.61,1.2c.21-.19.49-.45.76-.72,3-3,6-6,9-9a5.13,5.13,0,0,1,5.83-1.08,5.25,5.25,0,0,1,3.09,5,5.5,5.5,0,0,1-1.74,3.72c-3.66,3.64-7.3,7.31-11,10.94a2.41,2.41,0,0,0-.79,1.93c0,3.26,0,6.53,0,10H78.43l0,0c0-3.83,0-7.66,0-11.49a2.2,2.2,0,0,1,.71-1.74C83.1,52,87,48.11,90.89,44.21a5.16,5.16,0,0,0,.77-.86A1.78,1.78,0,0,0,91.44,41a1.83,1.83,0,0,0-2.39-.33,5.71,5.71,0,0,0-.86.77Q83,46.69,77.76,51.91a5.9,5.9,0,0,0-.66,1c-3.69-3.17-7.15-3.14-10.69-.1-.31-.38-.53-.7-.8-1L55.1,41.36c-1.35-1.35-2.55-1.36-3.91,0L40.61,51.94l-.86.8c-3.47-3-6.9-2.93-10.32,0-.28-.25-.52-.46-.74-.68L18.18,41.55a8,8,0,0,0-.85-.79,1.91,1.91,0,0,0-2.64,2.68,8.93,8.93,0,0,0,.79.84c3.9,3.9,7.81,7.79,11.68,11.72a2.5,2.5,0,0,1,.63,1.54c.06,3.86,0,7.72.05,11.59ZM39.68,38.8a5.09,5.09,0,1,0-5,5A5.08,5.08,0,0,0,39.68,38.8Zm32,5a5.09,5.09,0,1,0-5.1-5.07A5.06,5.06,0,0,0,71.72,43.83Z"/>
        <path class="cls-1" d="M64.86,104.45H61.61c0-2.52-.19-5,0-7.48a6.6,6.6,0,0,0-2.6-6.18c-2.07-1.76-3.87-3.84-6-6-.49.57-.87,1.07-1.31,1.52-2.13,2.14-4.25,4.29-6.42,6.4a2.12,2.12,0,0,0-.67,1.66c0,3,0,6,0,9v1.09H41.37v-1.55c0-3.33,0-6.67,0-10a2,2,0,0,1,.46-1.29c3.62-3.68,7.29-7.32,10.94-11l.43-.35c.69.71,1.36,1.42,2,2.11,3,3,6.07,6.05,9.08,9.1a1.92,1.92,0,0,1,.57,1.14c0,3.8,0,7.59,0,11.39A2.84,2.84,0,0,1,64.86,104.45Z"/>
        <path class="cls-1" d="M35.4,13.18c-.53-1-1-1.87-1.52-2.81.23-.17.41-.33.61-.45Q43.46,5,52.43.17A1.62,1.62,0,0,1,53.74.11Q62.86,5,72,10c.12.07.23.16.47.32-.5.91-1,1.82-1.52,2.82-.35-.17-.66-.3-1-.46C64.65,9.8,59.35,6.92,54.07,4a1.63,1.63,0,0,0-1.82,0C47,6.88,41.78,9.72,36.55,12.58Z"/>
        <path class="cls-1" d="M32.06,27.29,30.27,30l-7.6-5.07c-2-1.3-3.94-2.58-5.86-3.93a1.18,1.18,0,0,0-1.58,0C11.1,23.8,7,26.55,2.8,29.31c-.29.2-.58.38-1,.65L0,27.29c.26-.2.49-.4.73-.57Q8,21.88,15.27,17c.47-.31.83-.49,1.4-.1q7.45,5,15,10A3.41,3.41,0,0,1,32.06,27.29Z"/>
        <path class="cls-1" d="M106.29,18.85l-1.8,2.69-6.61-4.4c-2.22-1.48-4.46-2.93-6.65-4.45a1.44,1.44,0,0,0-1.93,0c-4.09,2.78-8.22,5.51-12.34,8.25l-1,.6c-.6-.91-1.18-1.78-1.81-2.71l3.37-2.26q6-4,12-8a1,1,0,0,1,1.31-.08q7.52,5.06,15,10.06A4.15,4.15,0,0,1,106.29,18.85Z"/>
        <path class="cls-1" d="M9.2,62.29H6V28.72H9.2Z"/>
        <path class="cls-1" d="M97.11,20.26h3.18V52.14H97.11Z"/>
        <path class="cls-1" d="M42.92,28.56H39.74V11.86h3.18Z"/>
        <path class="cls-1" d="M63.38,11.82h3.17v16.7H63.38Z"/>
        <path class="cls-1" d="M54.72,21.81H51.55V8.49h3.17Z"/>
        <path class="cls-1" d="M80.25,20.25h3.17V33.58H80.25Z"/>
        <path class="cls-1" d="M22.89,28.69h3.18v4.89H22.89Z"/>
        <path class="cls-1" d="M51.56,25.33h3.19v3.2H51.56Z"/>
        <path class="cls-1" d="M51.54,35.28v-3.2h3.2v3.2Z"/>
        <path class="cls-1" d="M97.09,55.67h3.19v3.21H97.09Z"/>
        <path class="cls-1" d="M97.12,62.43h3.17v3.21H97.12Z"/>
        <path class="cls-1" d="M9.2,69.05H6V65.82H9.2Z"/>
        <path class="cls-1" d="M65,69.13H61.61V64.72c0-2,0-4,0-6a1.53,1.53,0,0,0-.25-1C58.67,55,56,52.32,53.2,49.54c-.35.32-.63.57-.89.83-2.26,2.26-4.49,4.54-6.79,6.76a2.63,2.63,0,0,0-.85,2.12c0,3.22,0,6.45,0,9.88H41.32c0-3.87,0-7.73.06-11.59a2,2,0,0,1,.42-1.31c3.67-3.73,7.38-7.42,11.08-11.12a2.57,2.57,0,0,1,.36-.23l6.14,6.19c1.63,1.64,3.3,3.25,4.89,4.94a2.49,2.49,0,0,1,.63,1.53C65,61.4,65,65.26,65,69.13Z"/>
      </g>
    </g>
  </g>
</svg>
