<svg xmlns="http://www.w3.org/2000/svg" viewBox="0 0 95.48 95.42">
  <defs>
    <style>
      .cls-1 {
        fill: #23255a;
      }
    </style>
  </defs>
  <title>value</title>
  <g id="Layer_2" data-name="Layer 2">
    <g id="Layer_2-2" data-name="Layer 2">
      <path class="cls-1" d="M95.47,58.52H87.8V89.26H63.2V64.75H60.08V95.42H35.45V64.72H32.34V89.25H7.73V58.55H0V34.26a9.21,9.21,0,0,1,9.64-9.61c2.82,0,5.64,0,8.48-.07a12.74,12.74,0,0,1-8.19-5.22,12,12,0,0,1-2-9.51A12.33,12.33,0,0,1,32.29,11.2,12.64,12.64,0,0,1,21.91,24.65h3c2,0,4,0,6.06,0a9,9,0,0,1,8.06,5c.18.34.33.69.5,1.05h6.55C37.78,29,34.8,22.25,35.51,17A12.31,12.31,0,0,1,60,17.2c.64,5.6-2.78,12-10.35,13.61,2,0,4,0,6,0,.2,0,.45-.31.56-.53a9.19,9.19,0,0,1,9.06-5.62c2.78,0,5.56,0,8.34,0-8-1.74-11.09-8.51-10.33-13.83a12.32,12.32,0,0,1,24.48.34A12.58,12.58,0,0,1,77.36,24.65h9a9.2,9.2,0,0,1,9.14,9.13q0,11.94,0,23.88ZM56.92,84.69V52c-3.13,2.35-6.15,4.6-9.19,6.87L38.53,52V84.67h7.7V66.29h3.05v18.4ZM67.7,46.92V64.64l-1.44.07V78.5H74V60.14H77V78.48h7.6V45.86l-9.17,6.87ZM10.82,45.85V78.49h7.69V60.16h3.06V78.51h7.64V64.71l-1.5-.09V47L20,52.73ZM64.7,61.58v-.77c0-6.77,0-13.54,0-20.3,0-4.09-2.6-6.65-6.69-6.65H37.5c-4.15,0-6.72,2.56-6.72,6.71q0,10,0,20v1h4.66V50.89l1.39-.12-.54-.52a7.82,7.82,0,0,1-.76-10.49,7.24,7.24,0,0,1,10.07-1.38c1.67,1.23,2.78,1.12,4.36-.06a7,7,0,0,1,8.37-.06A7.47,7.47,0,0,1,61.48,46a7.75,7.75,0,0,1-2.86,4.79l1.43.09v10.7Zm20-49.24a9.26,9.26,0,1,0-9.36,9.22A9.31,9.31,0,0,0,84.72,12.34ZM38.48,18.45a9.26,9.26,0,1,0,9.38-9.24A9.32,9.32,0,0,0,38.48,18.45ZM20,21.57a9.26,9.26,0,1,0-.14-18.51,9.33,9.33,0,0,0-9.14,9.17A9.33,9.33,0,0,0,20,21.57ZM8.94,44.64l.17-.24A3.33,3.33,0,0,1,8.48,44a7.52,7.52,0,0,1-2-7.87,7.29,7.29,0,0,1,11.22-4c1.75,1.21,2.9,1.29,4.61,0a7.07,7.07,0,0,1,8.45.09c.24.16.62.37.83.29,1.45-.6,2.88-1.27,4.37-2a6,6,0,0,0-5.22-2.83c-7,0-14,0-21.07,0a6.21,6.21,0,0,0-6.62,6.62q0,10,0,20c0,.35,0,.69,0,1.07H7.72V44.71ZM59.47,30.57c1.38.58,2.73,1.07,4,1.71a1,1,0,0,0,1.26-.08,7.07,7.07,0,0,1,8.53,0c1.6,1.21,2.78,1.36,4.36,0a6.37,6.37,0,0,1,5.45-1.28A7.09,7.09,0,0,1,89,36.07,7.52,7.52,0,0,1,87.05,44l-.63.67,1.36.08V55.4h4.57a2,2,0,0,0,.06-.33c0-7.16,0-14.31,0-21.46a6,6,0,0,0-6-5.89q-11-.07-21.94,0A5.86,5.86,0,0,0,59.47,30.57ZM58.55,44.5a4.35,4.35,0,0,0-2.32-3.92,4.18,4.18,0,0,0-4.54.22c-1.14.72-2.26,1.46-3.36,2.24a.89.89,0,0,1-1.2,0c-1-.72-2.07-1.38-3.11-2.08a4.4,4.4,0,0,0-6.23.88,4.7,4.7,0,0,0,.93,6.45c2.82,2.17,5.67,4.29,8.54,6.39a1,1,0,0,0,1,0c2.89-2.12,5.76-4.28,8.61-6.45A4.47,4.47,0,0,0,58.55,44.5ZM29.23,35a4.26,4.26,0,0,0-5.16-.42c-1.14.71-2.27,1.45-3.37,2.23a1,1,0,0,1-1.36,0C18.25,36,17.11,35.32,16,34.59a4.06,4.06,0,0,0-3.12-.65,4.18,4.18,0,0,0-3.49,3.29A4.43,4.43,0,0,0,11,42.12c2.79,2.15,5.64,4.24,8.44,6.38a.79.79,0,0,0,1.16,0c2.14-1.64,4.29-3.26,6.47-4.85a1.42,1.42,0,0,0,.67-1.35C27.64,39.72,27.68,37.19,29.23,35Zm37,0a10.55,10.55,0,0,1,1.5,6.79,3.16,3.16,0,0,0,0,.87,1.29,1.29,0,0,0,.37.71q3.44,2.63,6.93,5.19a.89.89,0,0,0,.81,0c3-2.19,5.95-4.36,8.84-6.65a4.65,4.65,0,0,0,.68-6.27,4.39,4.39,0,0,0-6.09-.94c-1.07.7-2.15,1.4-3.19,2.14a.93.93,0,0,1-1.28,0c-1.09-.78-2.22-1.52-3.36-2.24A4.23,4.23,0,0,0,66.25,35ZM10.79,86.2h7.63V81.68H10.79Zm18.43-4.53H21.59v4.54h7.63Zm37.05,0V86.2h7.61V81.65Zm18.42,0H77.05V86.2h7.64ZM38.52,92.38h7.64V87.83H38.52ZM57,87.84H49.33v4.52H57Z"/>
    </g>
  </g>
</svg>
