<svg xmlns="http://www.w3.org/2000/svg" viewBox="0 0 95.48 105.35">
  <defs>
    <style>
      .cls-1 {
        fill: #23255a;
      }
    </style>
  </defs>
  <title>vision</title>
  <g id="Layer_2" data-name="Layer 2">
    <g id="Layer_2-2" data-name="Layer 2">
      <g>
        <path class="cls-1" d="M95.48,29.63c-3.78,0-7.55,0-11.32-.05A2.05,2.05,0,0,1,82.68,29a9.16,9.16,0,0,0-6.57-3.35c-9.44-1.25-18.85-2.74-28.26-4.17-.8-.12-.92.35-1.14.84q-4.53,9.79-9,19.59a1.33,1.33,0,0,1-1.44.93c-5.73,0-11.46,0-17.18,0h-.87V39.53H34.28c.55,0,.93-.05,1.21-.66,2.63-5.76,5.3-11.5,7.95-17.25a6.54,6.54,0,0,0,.25-.75c-1-.16-2-.37-3-.43-.25,0-.63.43-.77.74q-2.8,6.22-5.55,12.48a1.24,1.24,0,0,1-1.35.91c-2.2,0-4.39,0-6.58,0A2.26,2.26,0,0,1,25.12,34c-1.3-1.22-2.51-2.53-3.81-3.74a2.36,2.36,0,0,0-1.41-.6c-2.74-.05-5.48,0-8.23,0-2.28,0-3.45,1.15-3.45,3.4q0,20.11,0,40.22c0,.24,0,.47,0,.77,1.43.18,2.62.18,3.79-1,3.91-4.09,8-8,12-12a2.2,2.2,0,0,0,.72-1.7c0-4,0-8,0-11.94V46.16h3.2c0,.29.05.56.05.82,0,4.6,0,9.19,0,13.79a2.35,2.35,0,0,1-.6,1.4c-1.24,1.33-2.57,2.57-3.82,3.88a1.74,1.74,0,0,0-.47,1q0,17.24,0,34.46a3.87,3.87,0,0,0,.06.48h9.83v3.31H0v-3.29H8.18V77.33H5v-.87q0-21.7,0-43.41a6.84,6.84,0,0,1,6.71-6.69c2.43,0,4.88.14,7.3-.05a5.31,5.31,0,0,1,5.29,2.23A6.38,6.38,0,0,0,31,31.33c.67-.1,1-.24,1.29-.86,1.41-3.27,2.88-6.52,4.32-9.77.1-.24.17-.49.33-.95H28.08V9.9h2.53a47,47,0,0,0,6.06-.1C50,7.88,63.37,5.87,76.72,3.89c1.11-.17,2.4-.14,3.26-.71A20.61,20.61,0,0,0,83.13,0H95.48ZM79,6.83l-41.1,6.09v3.79L79,22.8ZM11.58,77.61V102h8.11V69.85c-2.33,2.34-4.52,4.55-6.74,6.73A14.38,14.38,0,0,1,11.58,77.61Zm74-57.91V3a13.63,13.63,0,0,0-1.46.75,4.55,4.55,0,0,0-1.9,4.29c.16,4.49.15,9,0,13.47a4.48,4.48,0,0,0,1.88,4.3,11,11,0,0,0,1.53.75V23.13h3.27V26.3h3.23v-23H88.86V19.7ZM34.5,16.43v-3.2H31.34v3.2Z"/>
        <path class="cls-1" d="M36.21,105.35v-3.24h6.57V82.38h9.86V102H56V75.82h9.85V102h3.32V65.92H79V102h3.29V62.64h9.85v39.42h3.36v3.29ZM88.87,65.89H85.64V102h3.23ZM75.67,102V69.19H72.48V102ZM62.5,102v-23H59.31v23Zm-13.17,0V85.65H46.15V102Z"/>
        <path class="cls-1" d="M95.48,54.32H92.23v-5.9c-.43.4-.69.62-.94.87-3.66,3.65-7.31,7.33-11,11a2.32,2.32,0,0,1-1.49.62c-3.7,0-7.41,0-11.11,0a2.49,2.49,0,0,0-2,.8c-5,5-10,10-15,15a2.15,2.15,0,0,1-1.7.7c-3.77,0-7.54,0-11.31,0H36.28V74.09h2.47c2.91,0,5.82,0,8.74,0a2.53,2.53,0,0,0,2.06-.83q7.46-7.53,15-15a2.52,2.52,0,0,1,1.59-.65c3.8,0,7.61,0,11.41,0a1.86,1.86,0,0,0,1.18-.41c3.59-3.53,7.15-7.1,10.71-10.67.08-.09.15-.2.33-.43H84V42.8H95.48Z"/>
        <path class="cls-1" d="M8.25,14.75A8.54,8.54,0,0,1,16.57,6.6a8.55,8.55,0,0,1,8.1,8.27A8.54,8.54,0,0,1,16.35,23,8.55,8.55,0,0,1,8.25,14.75Zm8.27-4.89a4.7,4.7,0,0,0-5,4.92,4.69,4.69,0,0,0,4.84,5,4.72,4.72,0,0,0,5.07-5A4.7,4.7,0,0,0,16.52,9.86Z"/>
        <path class="cls-1" d="M62.47,16.41H59.36V13.24h3.11Z"/>
        <path class="cls-1" d="M65.93,13.22H69v3.17H65.93Z"/>
        <path class="cls-1" d="M72.53,13.23h3.11v3.14H72.53Z"/>
      </g>
    </g>
  </g>
</svg>
