<svg id="Layer_1" data-name="Layer 1" xmlns="http://www.w3.org/2000/svg" viewBox="0 0 512 512"><defs><style>.cls-1{fill:#fff;}</style></defs><title>facebook</title><path class="cls-1" d="M281.42,206h50.25c-1.63,13.81-3.21,27.17-4.8,40.53a3,3,0,0,1-.09.43c-1.59,9.55-1.59,9.55-11.52,9.55h-34v6c0,46.85-.05,93.7.09,140.56,0,4.15-1,5.5-5.3,5.44-18.51-.24-37-.1-55.52-.1h-4.83V256.66H180.33V206.12h35.11c0-2,0-3.53,0-5.07.28-14.38.05-28.79,1-43.13,1.84-28.66,20.29-47.75,49.07-51.56a137.86,137.86,0,0,1,16.18-1.61c16.44-.22,32.88-.08,49.69-.08v50.79c-1.73,0-3.58-.05-5.42,0-10.84.31-21.74.08-32.49,1.18-8,.82-11.79,5.78-11.95,13.84C281.24,182.08,281.42,193.67,281.42,206Z"/></svg>