<svg id="Layer_1" data-name="Layer 1" xmlns="http://www.w3.org/2000/svg" viewBox="0 0 512 512"><defs><style>.cls-1{fill:#fff;}</style></defs><title>linkedin</title><path class="cls-1" d="M287.78,187.52V213c2.47-3.18,4.05-5.62,6-7.68,13.39-13.93,28.88-23.55,49.05-22.85,9,.31,18.16-.1,26.82,1.79,25.45,5.56,39.75,22.9,46,47.31a98,98,0,0,1,3,23.19c.38,41.15.33,82.31.42,123.47,0,1.29-.12,2.59-.21,4.2H358c0-1.92,0-3.83,0-5.74.06-33.82.23-67.65.07-101.47a64.18,64.18,0,0,0-2.4-17.68c-3.37-11.39-11.05-19.09-23.05-21-13.24-2.07-25.29.54-33.86,12-5.76,7.75-8.16,16.56-8.18,26.19q-.14,50.74-.47,101.48c0,1.95,0,3.9,0,6.15H229.88V187.52Z"/><path class="cls-1" d="M191.47,188.21V382.15H131.09V188.21Z"/><path class="cls-1" d="M196.83,125.65c-.14,19.43-16.53,35.57-35.89,35.35a35.71,35.71,0,1,1,35.89-35.35Z"/></svg>