<?xml version="1.0" encoding="utf-8"?>
<!-- Generator: Adobe Illustrator 23.0.2, SVG Export Plug-In . SVG Version: 6.00 Build 0)  -->
<svg version="1.1" id="Layer_1" xmlns="http://www.w3.org/2000/svg" xmlns:xlink="http://www.w3.org/1999/xlink" x="0px" y="0px"
	 viewBox="0 0 92.8 25.3" style="enable-background:new 0 0 92.8 25.3;" xml:space="preserve">
<style type="text/css">
	.st0{fill:#00294E;}
	.st1{fill:#89B0DD;}
	.st2{fill:#4B84B6;}
	.st3{fill:#003D67;}
</style>
<title>logo</title>
<g>
	<g id="Layer_1-2">
		<g>
			<path class="st0" d="M92.7,6.5h-1.1c-0.1,0-0.2,0-0.2,0.1v0.1c0,0,0,0.1,0.1,0.1l0,0c0,0,0-0.1-0.1-0.1c0,0.1,0,0.2,0,0.3
				c0,1.7,0,3.5,0,5.2v4.5c0,0.1,0.1,0.3-0.1,0.4L91.2,17l-3.9-4.7l-4.7-5.7c-0.1-0.1-0.2-0.2-0.4-0.2c-0.4,0-0.9,0-1.3,0
				c-0.3,0-0.3,0.1-0.3,0.3c0,3.9,0,7.8,0,11.7v0.2c0,0.1,0,0.2,0.2,0.2h1.1c0.1,0,0.2-0.1,0.2-0.2v-0.5c0-3.2,0-6.5,0-9.7
				c0-0.1-0.1-0.2,0-0.3S82,8.3,82,8.3c1.9,2.3,3.8,4.6,5.7,6.8l2.5,3l0,0l0,0l0.2,0.2c0,0.1,0.1,0.1,0.1,0.1l0,0c0,0,0,0,0,0
				c0,0.1,0.1,0.1,0.2,0.2c0.1,0.1,0.3,0.1,0.4,0.1c0.5,0,1,0,1.6,0L92.7,6.5L92.7,6.5z"/>
			<path class="st1" d="M6.8,6.3l0.9,0.9c0.3,0.3,0.7,0.7,1,1c0.1,0.1,0.1,0.1,0.2,0.2s0,0.1,0,0.1c-0.2,0-0.4,0-0.5,0
				c-0.9,0.1-1.4,1-1.3,1.8c0,0,0,0.1,0,0.1c0.1,0.3,0.2,0.6,0.4,0.8c0.3,0.3,0.7,0.5,1.2,0.4c0.5,0,0.9-0.3,1.2-0.6
				c0.2-0.3,0.3-0.7,0.3-1.1c0,0,0-0.1,0-0.1s0.1,0,0.1,0.1c0.2,0.2,0.4,0.4,0.6,0.6s0.5,0.6,0.8,0.8l0.6,0.6l0.2,0.2
				c0,0,0.1,0.1,0.1,0c0.1-0.1,0.2-0.2,0.3-0.3c0.3-0.3,0.6-0.6,0.8-0.8c0.1-0.1,0.2-0.2,0.3-0.3s0.1-0.1,0-0.1
				c-0.2-0.1-0.3-0.2-0.4-0.3c-0.2-0.2-0.4-0.4-0.6-0.7c-0.2-0.3-0.2-0.7-0.2-1c0-0.4,0.1-0.8,0.3-1.1c0.2-0.4,0.5-0.6,0.9-0.8
				c0.3-0.2,0.6-0.3,0.9-0.3c0.6-0.1,1.1,0.1,1.6,0.5c0.2,0.2,0.4,0.4,0.6,0.7c0.1,0.2,0.1,0.2,0.3,0s0.4-0.4,0.6-0.6l0.7-0.7
				c0.1-0.1,0.1-0.2,0-0.3C18.3,5.6,18,5.3,17.8,5s-0.4-0.4-0.6-0.7l-0.6-0.6c0,0-0.1-0.1-0.1-0.1s0.1,0,0.1,0h0.1
				C17.1,3.6,17.7,3.4,18,3c0.3-0.4,0.4-0.9,0.2-1.3c-0.1-0.5-0.5-0.9-1-1.1c-0.2-0.1-0.5-0.1-0.8-0.1c-0.4,0.1-0.8,0.3-1.1,0.7
				c-0.1,0.2-0.2,0.4-0.2,0.5c0,0.2,0,0.4,0,0.6c0,0,0,0.1,0,0.1s-0.1,0-0.1,0L15,2.3l-0.6-0.6c-0.6-0.6-1.1-1.1-1.7-1.7
				c0,0-0.1-0.1-0.1,0s-0.1,0.1-0.2,0.2L11.7,1l-0.8,0.8l-0.5,0.5l-1,1L8.8,3.9C8.6,4.1,8.4,4.3,8.2,4.5S7.8,4.9,7.6,5.1
				S7,5.7,6.7,6c0,0-0.1,0.1,0,0.1L6.8,6.3z"/>
			<path class="st2" d="M7.3,17.6l1.1-1.1c0,0,0.1-0.1,0.1,0s0,0.1,0,0.1c0,0.1,0,0.3,0,0.5c0.1,0.5,0.4,0.9,0.9,1.1
				c0.4,0.2,0.9,0.3,1.3,0.1c0.6-0.2,1.1-0.9,1-1.5c0-0.6-0.3-1.1-0.8-1.3C10.6,15,10.2,15,9.9,15c0,0-0.1,0-0.1,0s0-0.1,0-0.1
				l1.2-1.1c0.4-0.4,0.8-0.8,1.2-1.2c0.1-0.1,0.1-0.1,0-0.1l-0.2-0.2l-1.2-1.2c-0.1-0.1-0.1-0.1-0.1,0c0,0.1-0.1,0.2-0.2,0.3
				C10,12,9.3,12.4,8.6,12.3H8.3c-0.1,0-0.1,0-0.2,0c-1.2-0.3-1.9-1.5-1.7-2.7C6.5,9.3,6.7,9,6.9,8.7c0.2-0.2,0.4-0.4,0.7-0.5
				c0,0,0.2,0,0-0.1L6.2,6.6C6.1,6.6,6.1,6.5,6,6.6L4.7,8l-1,1C3.4,9.3,3.1,9.6,2.8,9.9s-0.7,0.6-1,1s-0.6,0.6-0.9,0.9l-0.8,0.8
				c-0.1,0.1-0.1,0.1,0,0.2l0.3,0.3l1.1,1.1l1,1l1.2,1.2l1.4,1.5l0.8,0.8c0.1,0.1,0.1,0.1,0.2,0C6.5,18.3,6.9,17.9,7.3,17.6z"/>
			<path class="st3" d="M16.4,16.9C16.4,16.9,16.4,16.9,16.4,16.9c0.3,0,0.6-0.1,0.9-0.2c0.3-0.1,0.5-0.3,0.7-0.6
				c0.2-0.3,0.3-0.6,0.3-0.9c0-0.8-0.6-1.5-1.4-1.6c-0.4,0-0.8,0.1-1.1,0.4c-0.5,0.4-0.7,0.9-0.6,1.5H15c0-0.1-0.1-0.1-0.2-0.2
				l-2.1-2.2c-0.1-0.1-0.1-0.1-0.1,0c-0.5,0.5-0.9,1-1.4,1.4c-0.1,0.1,0,0.1,0,0.1c0.2,0.1,0.3,0.2,0.4,0.3c0.9,0.8,1,2.1,0.3,3.1
				c-0.5,0.7-1.3,1-2.1,0.8c-0.7-0.1-1.3-0.6-1.6-1.2c0-0.1,0-0.1-0.1,0l-1.4,1.4c-0.1,0.1,0,0.1,0,0.2l1.2,1.2l2.2,2.2l2.5,2.5
				c0.1,0.1,0.1,0.1,0.2,0c0.5-0.5,0.9-0.9,1.4-1.4c0.1-0.1,0.1-0.1,0-0.2c-0.7-0.3-1.1-1-1.1-1.7c-0.1-1.2,0.8-2.3,2-2.4
				c0.2,0,0.5,0,0.7,0c0.7,0.1,1.2,0.6,1.5,1.2c0,0.1,0.1,0.1,0.1,0l1.5-1.4c0.1-0.1,0-0.1,0-0.1L16.4,16.9z"/>
			<path class="st0" d="M39.6,8.3c0.1-0.3,0.3-0.5,0.9-0.5H48c0.9,0,1,0.1,1.1,1c0,0.1,0,0.2,0.2,0.2h1c0.1,0,0.1,0,0.2-0.1
				c0.2-1.1-0.6-2.2-1.7-2.4c-0.1,0-0.2,0-0.3,0c-1.4,0-2.8,0-4.2,0h-4c-1.1,0-2.1,0.9-2.1,2c0,0,0,0.1,0,0.1c0,0.9,0,1.8,0,2.7
				c0,1.2,0.9,2.1,2.1,2.1c0,0,0.1,0,0.1,0h8c0.6,0,0.8,0.2,0.8,0.8v2.5c0,0.5-0.2,0.8-0.8,0.8h-7.9c-0.4,0-0.7-0.2-0.8-0.6
				c0,0,0-0.1,0-0.1v-0.2c0-0.1,0-0.2-0.2-0.2h-1.1c-0.1,0-0.2,0-0.2,0.2c-0.1,1,0.4,1.9,1.3,2.2c0.5,0.1,0.9,0.2,1.4,0.1h7.5
				c1.1,0,2.1-0.9,2.1-2c0,0,0,0,0-0.1c0-0.8,0-1.6,0-2.4c0-0.3,0-0.5-0.1-0.8c-0.2-0.9-1.1-1.6-2.1-1.5h-8
				c-0.4,0.1-0.7-0.2-0.8-0.6c0-0.1,0-0.1,0-0.2V8.6C39.5,8.5,39.6,8.4,39.6,8.3z"/>
			<path class="st0" d="M76.6,6.5h-8.3c-0.1,0-0.2,0-0.4,0c-1,0.2-1.7,1.1-1.7,2.1v8.1c0,0.3,0.1,0.7,0.2,1c0.4,0.8,1.2,1.2,2,1.2
				h5.2c0.9,0,1.8,0,2.7,0c1.1,0,2-0.8,2.1-1.9c0,0,0-0.1,0-0.1c0-2.8,0-5.6,0-8.4C78.5,7.4,77.7,6.5,76.6,6.5z M76.4,17.5h-8
				c-0.4,0-0.7-0.2-0.7-0.6c0-0.1,0-0.1,0-0.2v-4l0,0v-4c0-0.6,0.2-0.8,0.8-0.8h8c0.4-0.1,0.7,0.2,0.8,0.6c0,0.1,0,0.1,0,0.2v8
				c0.1,0.4-0.2,0.7-0.6,0.8C76.6,17.4,76.5,17.4,76.4,17.5L76.4,17.5z"/>
			<path class="st0" d="M36.1,12.3c-1.3,0-2.7,0-4,0c-0.1,0-0.2,0.1-0.2,0.2c0,0.3,0,0.6,0,1s0.1,0.3,0.3,0.3h2.5
				c0.2,0,0.3,0.1,0.3,0.3c0,0.9,0,1.7,0,2.6c0,0.6-0.2,0.9-0.9,0.9h-7.8c-0.7,0-0.9-0.2-0.9-0.9V8.8c0-0.7,0.2-0.9,0.9-0.9h8
				c0.3,0,0.6,0.3,0.6,0.6c0,0.2-0.1,0.5,0.1,0.6s0.4,0,0.6,0h0.2c0.5,0,0.5,0,0.5-0.6c0-1.1-0.9-2-2-2h-8.1
				c-1.1-0.1-2.1,0.7-2.2,1.8c0,0.1,0,0.2,0,0.4v8c-0.1,1.2,0.8,2.1,2,2.2c0.1,0,0.2,0,0.3,0h7c0.4,0,0.8,0,1.2,0
				c1-0.1,1.8-0.8,1.9-1.8c0.1-1.5,0-3,0-4.5C36.3,12.3,36.3,12.3,36.1,12.3z"/>
			<path class="st0" d="M64.3,6.4H54.2c-0.3,0-0.7,0.1-0.9,0.3h-0.1c-0.3,0.1-0.5,0.4-0.6,0.6l0,0c-0.2,0.3-0.3,0.6-0.3,1
				c0,2,0,4.1,0,6.1c0,0.8,0,1.6,0,2.4c0,0.5,0.2,1,0.6,1.3c0,0.1,0.1,0.1,0.1,0.1c0,0.1,0.1,0.1,0.1,0.1l0,0
				c0.4,0.3,0.9,0.4,1.4,0.4h9.8c0.1,0,0.2,0,0.2-0.2v-1c0.1-0.3-0.1-0.2-0.3-0.2h-9.7c-0.6,0-0.8-0.2-0.8-0.8c0-2.6,0-5.2,0-7.9
				c0-0.3,0.1-0.7,0.4-0.9h0.1h2.2c2.6,0,5.2,0,7.9,0c0.3,0,0.4-0.1,0.3-0.3c0-0.2,0-0.5,0-0.7C64.6,6.6,64.6,6.4,64.3,6.4z"/>
		</g>
	</g>
</g>
</svg>
