<svg xmlns="http://www.w3.org/2000/svg" viewBox="0 0 92.76 25.3">
  <defs>
    <style>
      .cls-1 {
        fill: #fff;
      }
    </style>
  </defs>
  <title>logo</title>
  <g id="Layer_2" data-name="Layer 2">
    <g id="Layer_1-2" data-name="Layer 1">
      <g>
        <path class="cls-1" d="M92.65,6.47H91.54c-.07,0-.16,0-.16.08v.11a.3.3,0,0,1,.06.11v0a.3.3,0,0,0-.06-.11.61.61,0,0,0,0,.3c0,1.74,0,3.47,0,5.21v4.51c0,.14.07.31-.1.42L91.15,17l-3.91-4.66L82.5,6.62a.45.45,0,0,0-.37-.17c-.45,0-.89,0-1.33,0-.27,0-.34.07-.34.33q0,5.85,0,11.69v.17c0,.12,0,.17.16.17h1.05c.12,0,.18-.06.17-.19v-.45q0-4.87,0-9.75c0-.08-.06-.21,0-.25s.14.1.19.16q2.87,3.42,5.72,6.83l2.49,3v0h0l.16.2c0,.06.05.09.11.12a.05.05,0,0,0,0,0s0,.05,0,0a.39.39,0,0,0,.17.19c.1.13.25.07.38.08.52,0,1,0,1.55,0V6.44Z"/>
        <path class="cls-1" d="M6.82,6.32l.93.91q.5.48,1,1c.06.07.15.12.2.21s0,.08,0,.07a2,2,0,0,0-.54,0A1.58,1.58,0,0,0,7.12,10.4a1.39,1.39,0,0,0,.44.79,1.52,1.52,0,0,0,1.15.45A1.58,1.58,0,0,0,9.93,11a1.54,1.54,0,0,0,.3-1.08s0-.11,0-.13.09,0,.12.08c.19.19.37.4.58.59s.54.55.82.82l.6.59.21.21s.1.07.14,0A2,2,0,0,1,13,11.8c.27-.28.55-.55.83-.83.1-.11.21-.2.31-.31s.06-.08,0-.12a1.55,1.55,0,0,1-.43-.29,2,2,0,0,1-.56-.7,1.78,1.78,0,0,1-.21-1,1.94,1.94,0,0,1,.26-1.11,2.24,2.24,0,0,1,.85-.85,2.17,2.17,0,0,1,.89-.29,2.25,2.25,0,0,1,1.58.46,2.06,2.06,0,0,1,.56.65c.1.17.11.18.25,0s.39-.37.58-.56l.71-.72c.13-.13.14-.16,0-.27-.31-.27-.57-.57-.86-.85s-.43-.44-.65-.66l-.65-.64s-.09-.07-.07-.12.08,0,.12,0h.08A1.58,1.58,0,0,0,18,3a1.51,1.51,0,0,0,.24-1.3,1.52,1.52,0,0,0-1-1.09,1.37,1.37,0,0,0-.75-.09,1.53,1.53,0,0,0-1.09.68,1.42,1.42,0,0,0-.24.55,3.38,3.38,0,0,0,0,.55s0,.06,0,.07-.06,0-.08,0l-.07-.07-.61-.61C13.79,1.11,13.26.58,12.74,0c0,0-.08-.06-.13,0s-.13.13-.19.19L11.7,1l-.83.81-.51.53-1,1-.56.56c-.19.19-.38.37-.56.56s-.44.45-.67.67S7,5.68,6.65,6c0,0-.07.09,0,.14Z"/>
        <path class="cls-1" d="M7.26,17.57l1.13-1.14s.06-.07.1-.05,0,.07,0,.1a3.39,3.39,0,0,0,0,.45A1.58,1.58,0,0,0,9.36,18a1.46,1.46,0,0,0,1.33.06,1.49,1.49,0,0,0,1-1.53,1.52,1.52,0,0,0-.83-1.33,1.6,1.6,0,0,0-.94-.17s-.07,0-.09,0,0-.05,0-.07L11,13.87c.39-.38.78-.77,1.16-1.16.06-.05.06-.09,0-.14l-.24-.24-1.19-1.19c-.06-.06-.09-.07-.13,0a1.27,1.27,0,0,1-.2.34,2.15,2.15,0,0,1-1.78.87h-.3a.78.78,0,0,1-.21,0,2.23,2.23,0,0,1-1.21-3.6,2.26,2.26,0,0,1,.68-.54s.15,0,0-.14L6.18,6.63c-.07-.07-.11-.08-.18,0L4.67,8l-1,1c-.3.29-.6.6-.89.9s-.68.65-1,1-.61.6-.9.91l-.82.81c-.11.11-.11.1,0,.21l.3.3,1.07,1.07,1,1,1.23,1.23,1.44,1.45.83.82c.06.06.09.06.15,0C6.52,18.29,6.89,17.93,7.26,17.57Z"/>
        <path class="cls-1" d="M16.43,16.87s-.06,0-.05-.09a1.63,1.63,0,0,0,.9-.1,1.51,1.51,0,0,0,.7-.57,1.55,1.55,0,0,0,.28-.86,1.59,1.59,0,0,0-1.44-1.61,1.5,1.5,0,0,0-1.15.35,1.58,1.58,0,0,0-.57,1.51l-.06,0a1.56,1.56,0,0,0-.16-.2l-2.14-2.15c-.06-.06-.09-.06-.15,0-.48.48-.95,1-1.44,1.44-.07.07,0,.09,0,.13a1.86,1.86,0,0,1,.44.29,2.21,2.21,0,0,1,.29,3.07,2.12,2.12,0,0,1-2.14.8,2.16,2.16,0,0,1-1.58-1.18c0-.06,0-.1-.12,0L6.63,19.14c-.06.06,0,.1,0,.16l1.23,1.23,2.21,2.2,2.52,2.52c.06.07.1.06.16,0,.46-.47.93-.94,1.4-1.4.1-.11.1-.11,0-.18A2.14,2.14,0,0,1,13,21.94a2.22,2.22,0,0,1,2.69-2.4,2.15,2.15,0,0,1,1.5,1.17c0,.08.07.08.12,0l1.45-1.44c.06-.06.05-.09,0-.15Z"/>
        <path class="cls-1" d="M39.59,8.3c.13-.34.34-.45.88-.45H48c.91,0,1,.07,1.06,1,0,.13,0,.18.18.18h1c.08,0,.13,0,.15-.11a2.07,2.07,0,0,0-1.95-2.42c-1.38,0-2.77,0-4.16,0h-4a2.06,2.06,0,0,0-2.13,2.07c0,.9,0,1.79,0,2.69a2.11,2.11,0,0,0,2.18,2.13h7.95c.56,0,.77.21.77.76v2.52c0,.55-.24.79-.8.79H40.31a.7.7,0,0,1-.76-.76v-.22c0-.12,0-.19-.17-.19H38.33c-.11,0-.17,0-.17.16a2.14,2.14,0,0,0,1.33,2.24,3.78,3.78,0,0,0,1.42.14h7.45a2.06,2.06,0,0,0,2.08-2.11c0-.81,0-1.63,0-2.44a2.7,2.7,0,0,0-.06-.8,2,2,0,0,0-2.08-1.52h-8a.68.68,0,0,1-.77-.76V8.6A.78.78,0,0,1,39.59,8.3Z"/>
        <path class="cls-1" d="M76.56,6.46H68.31a1.46,1.46,0,0,0-.36,0,2.08,2.08,0,0,0-1.66,2.12V16.7a2,2,0,0,0,.23,1,2.08,2.08,0,0,0,2,1.16h5.18c.91,0,1.83,0,2.74,0a2,2,0,0,0,2.09-2c0-2.8,0-5.59,0-8.39A2,2,0,0,0,76.56,6.46Zm-.13,11h-8a.66.66,0,0,1-.74-.76v-4h0v-4c0-.58.22-.81.79-.81h8a.67.67,0,0,1,.76.76v8A.68.68,0,0,1,76.43,17.42Z"/>
        <path class="cls-1" d="M36.14,12.29c-1.33,0-2.67,0-4,0-.15,0-.2.05-.2.19,0,.33,0,.65,0,1s.07.25.25.25h2.5c.22,0,.3.05.3.29,0,.86,0,1.72,0,2.58,0,.64-.23.87-.87.87H26.35c-.66,0-.89-.23-.89-.9V8.77c0-.71.2-.92.92-.92h8a.64.64,0,0,1,.59.56c0,.19-.1.46.08.56s.4,0,.6,0h.17c.54,0,.54,0,.53-.56a2,2,0,0,0-2-2H26.24a2,2,0,0,0-2.17,2.18v8a2.09,2.09,0,0,0,2.22,2.22h7c.4,0,.79,0,1.19,0A2,2,0,0,0,36.33,17c.06-1.49,0-3,0-4.48C36.35,12.33,36.3,12.29,36.14,12.29Z"/>
        <path class="cls-1" d="M64.3,6.45H54.21a1.47,1.47,0,0,0-.94.32l-.07,0a1.38,1.38,0,0,0-.59.63h0a1.49,1.49,0,0,0-.29,1c0,2,0,4.07,0,6.1,0,.79,0,1.58,0,2.38a1.75,1.75,0,0,0,.6,1.28.12.12,0,0,0,.12.11.13.13,0,0,0,.12.09h0a2,2,0,0,0,1.37.41h9.83c.13,0,.23,0,.17-.19v-1c.08-.29-.14-.22-.27-.22H54.52c-.6,0-.83-.23-.83-.83,0-2.63,0-5.25,0-7.87a.91.91,0,0,1,.4-.85l.11,0h2.19c2.62,0,5.24,0,7.86,0,.25,0,.37-.07.28-.34a3.66,3.66,0,0,0,0-.74C64.58,6.58,64.59,6.45,64.3,6.45Z"/>
      </g>
    </g>
  </g>
</svg>
