<svg id="Layer_1" data-name="Layer 1" xmlns="http://www.w3.org/2000/svg" viewBox="0 0 512 512"><defs><style>.cls-1{fill:#fff;}</style></defs><title>mail</title><path class="cls-1" d="M452.27,188.53V383.27a4.32,4.32,0,0,0-.6,1c-4.1,13-12.14,18.94-25.72,18.94H331.3q-123.77,0-247.53,0c-9.15,0-16.11-4.4-20.76-12.22-1.41-2.37-2.2-5.11-3.28-7.68v-197a14.47,14.47,0,0,1,2,1.08Q82,202.76,102.19,218.25q68.46,52.37,137,104.7c11,8.4,22.71,8.27,33.81-.06q68.31-51.28,136.64-102.57C423.78,209.67,438,199.13,452.27,188.53Z"/><path class="cls-1" d="M452.27,128.73v5.37a25.63,25.63,0,0,0-3.2,1.81q-59.93,46.16-119.83,92.35Q293.9,255.5,258.6,282.79c-2,1.52-3.44,1.78-5.21,0a23.62,23.62,0,0,0-2.41-1.89q-89.61-69.1-179.25-138.2c-3.89-3-8-5.72-12-8.58v-5.37a4.32,4.32,0,0,0,.6-1c4-12.82,12.09-18.93,25.35-18.94q69.16-.06,138.33,0H427.85a22.93,22.93,0,0,1,19.41,9.72C449.45,121.55,450.63,125.31,452.27,128.73Z"/></svg>