<svg id="Layer_1" data-name="Layer 1" xmlns="http://www.w3.org/2000/svg" viewBox="0 0 512 512"><defs><style>.cls-1{fill:#fff;}</style></defs><title>messenger</title><path class="cls-1" d="M244.3,89.58h24.05c3,.41,5.95.89,8.93,1.24,29.38,3.43,56.29,13.46,80.28,30.76,32.15,23.18,53.44,53.81,61.88,92.86,1.33,6.19,2,12.53,3,18.81v20.8c-.51,3.72-.95,7.45-1.56,11.15C414,306.55,393.32,339.59,359.67,364c-44.88,32.62-94.83,40.78-148.53,28.19a8.38,8.38,0,0,0-5.41.64C188.79,402,172,411.29,155.1,420.57a21.77,21.77,0,0,0-2.47,1.85h-1.3c0-18.61,0-37.22.17-55.83a5.42,5.42,0,0,0-2.4-4.83C118.94,338,99.22,307.65,91.9,269.67c-1-5-1.56-10-2.32-15V233.25a15.62,15.62,0,0,0,.61-2.47,131.36,131.36,0,0,1,13.45-49.1c26.08-51.73,69-80.29,125.29-90.08C234,90.71,239.17,90.24,244.3,89.58ZM361.69,202.36l-.4-.54-79.46,44-43.42-45.17-89.06,94.55a7.26,7.26,0,0,0,3.49-1.08q37.29-20.37,74.54-40.8c2.06-1.14,3.23-1.1,4.88.7,8.49,9.25,17.14,18.37,25.73,27.53,4.81,5.13,9.64,10.25,14.56,15.49Z"/></svg>