<svg id="Layer_1" data-name="Layer 1" xmlns="http://www.w3.org/2000/svg" viewBox="0 0 512 512"><defs><style>.cls-1{fill:#fff;}</style></defs><title>twitter</title><path class="cls-1" d="M70.59,374.07c40.67,3.49,77.37-6.6,110.82-31.66C146.16,339,122.76,321.52,110.07,289c9.44,0,18.1.07,26.76-.05,1.82,0,3.63-.79,6.37-1.43-37.77-12-57.82-36.84-60.34-76.64,11.08,5.31,21.51,9.13,34.32,9.3-16.75-12.46-27.34-27.82-31.53-47.12s-1.3-37.45,8.58-55c41.55,48.76,93.74,75.62,158,80.23-.4-3.82-.82-6.95-1.06-10.1-3.06-41.07,22.19-75.11,62.52-83,25.44-5,47.93,2.34,67,19.89,2.3,2.12,4.22,2.86,7.4,2.12a163.11,163.11,0,0,0,44.47-17.74c-6,18.19-16.8,31.38-31.57,41.75,14.1-1.26,27.4-5.4,40.62-10.2-7.33,11.84-16,22.46-27,30.47-7.94,5.8-9.8,12.18-10.24,21.62-3.85,83.36-40.61,147.58-113.42,189.67-25.22,14.57-53,21.74-82.06,24.46-47.8,4.49-92.46-5-133.92-29.29-1.51-.88-3-1.83-4.49-2.75Z"/></svg>